<svg xmlns="http://www.w3.org/2000/svg" viewBox="0 0 223 223"><defs><style>.cls-1{fill:none;}.cls-2{fill:#cdd4f0;}.cls-3{fill:#f7c66a;}.cls-4{fill:#f0cdcd;}.cls-5{fill:#cdf0e9;}</style></defs><title>Asset 2@pattern</title><g id="Layer_2" data-name="Layer 2"><g id="Layer_1-2" data-name="Layer 1"><rect class="cls-1" width="223" height="223" transform="translate(223 223) rotate(180)"/><g id="sugar"><circle id="Ellipse_12" data-name="Ellipse 12" class="cls-2" cx="9.18" cy="127.41" r="3.48"/><circle id="Ellipse_36" data-name="Ellipse 36" class="cls-3" cx="41.05" cy="11.05" r="3.48"/><circle id="Ellipse_35" data-name="Ellipse 35" class="cls-4" cx="37.96" cy="93.73" r="3.48"/><circle id="Ellipse_24" data-name="Ellipse 24" class="cls-4" cx="21.73" cy="39.46" r="3.48"/><circle id="Ellipse_26" data-name="Ellipse 26" class="cls-4" cx="205.63" cy="41.18" r="3.48"/><circle id="Ellipse_19" data-name="Ellipse 19" class="cls-5" cx="75.05" cy="97.59" r="3.48"/><circle id="Ellipse_16" data-name="Ellipse 16" class="cls-4" cx="167" cy="121.55" r="3.48"/><circle id="Ellipse_30" data-name="Ellipse 30" class="cls-4" cx="213.82" cy="205.45" r="3.48"/><circle id="Ellipse_15" data-name="Ellipse 15" class="cls-4" cx="18" cy="142.95" r="3.48"/><circle id="Ellipse_34" data-name="Ellipse 34" class="cls-4" cx="94.36" cy="37.32" r="3.48"/><circle id="Ellipse_32" data-name="Ellipse 32" class="cls-5" cx="85.09" cy="172.54" r="3.48"/><circle id="Ellipse_31" data-name="Ellipse 31" class="cls-5" cx="34.09" cy="147.04" r="3.48"/><circle id="Ellipse_33" data-name="Ellipse 33" class="cls-2" cx="82" cy="104.55" r="3.48"/><circle id="Ellipse_28" data-name="Ellipse 28" class="cls-4" cx="190.95" cy="7.96" r="3.48"/><circle id="Ellipse_25" data-name="Ellipse 25" class="cls-5" cx="153.86" cy="63.59" r="3.48"/><circle id="Ellipse_23" data-name="Ellipse 23" class="cls-3" cx="34.09" cy="114.59" r="3.48"/><circle id="Ellipse_18" data-name="Ellipse 18" class="cls-4" cx="109.05" cy="166.36" r="3.48"/><circle id="Ellipse_14" data-name="Ellipse 14" class="cls-3" cx="111.87" cy="127.23" r="3.48"/><circle id="Ellipse_22" data-name="Ellipse 22" class="cls-4" cx="18.64" cy="54.32" r="3.48"/><circle id="Ellipse_29" data-name="Ellipse 29" class="cls-4" cx="198.68" cy="173.32" r="3.48"/><circle id="Ellipse_27" data-name="Ellipse 27" class="cls-4" cx="141.5" cy="93.73" r="3.48"/><circle id="Ellipse_20" data-name="Ellipse 20" class="cls-4" cx="55.73" cy="215.04" r="3.48"/><circle id="Ellipse_13" data-name="Ellipse 13" class="cls-2" cx="18.64" cy="179.5" r="3.48"/><circle id="Ellipse_21" data-name="Ellipse 21" class="cls-5" cx="54.05" cy="185.63" r="3.48"/><circle id="Ellipse_17" data-name="Ellipse 17" class="cls-3" cx="167" cy="208.09" r="3.48"/></g><circle class="cls-4" cx="180.53" cy="111.5" r="16.86"/><circle class="cls-4" cx="146.01" cy="111.5" r="16.86"/><circle class="cls-4" cx="111.5" cy="111.5" r="16.86"/><circle class="cls-4" cx="76.99" cy="111.5" r="16.86"/><circle class="cls-4" cx="42.47" cy="111.5" r="16.86"/></g></g></svg>